<?xml version="1.0" encoding="UTF-8" standalone="no"?>
<!-- Created with Inkscape (http://www.inkscape.org/) -->

<svg
   width="157.24605mm"
   height="105.17564mm"
   viewBox="0 0 157.24605 105.17564"
   version="1.1"
   id="svg1"
   xml:space="preserve"
   inkscape:version="1.3 (0e150ed6c4, 2023-07-21)"
   sodipodi:docname="logo_2024.svg"
   inkscape:export-filename="logo_2024.png"
   inkscape:export-xdpi="96"
   inkscape:export-ydpi="96"
   xmlns:inkscape="http://www.inkscape.org/namespaces/inkscape"
   xmlns:sodipodi="http://sodipodi.sourceforge.net/DTD/sodipodi-0.dtd"
   xmlns:xlink="http://www.w3.org/1999/xlink"
   xmlns="http://www.w3.org/2000/svg"
   xmlns:svg="http://www.w3.org/2000/svg"><sodipodi:namedview
     id="namedview1"
     pagecolor="#505050"
     bordercolor="#eeeeee"
     borderopacity="1"
     inkscape:showpageshadow="0"
     inkscape:pageopacity="0"
     inkscape:pagecheckerboard="0"
     inkscape:deskcolor="#505050"
     inkscape:document-units="mm"
     inkscape:zoom="1.1189113"
     inkscape:cx="376.70545"
     inkscape:cy="217.17538"
     inkscape:window-width="2880"
     inkscape:window-height="1526"
     inkscape:window-x="-11"
     inkscape:window-y="49"
     inkscape:window-maximized="1"
     inkscape:current-layer="layer1" /><defs
     id="defs1"><linearGradient
       id="linearGradient25"
       inkscape:collect="always"><stop
         style="stop-color:#c20219;stop-opacity:1;"
         offset="0"
         id="stop26" /><stop
         style="stop-color:#820225;stop-opacity:0.95814651;"
         offset="0.53541416"
         id="stop28" /><stop
         style="stop-color:#fa0219;stop-opacity:0.70852017;"
         offset="1"
         id="stop27" /></linearGradient><linearGradient
       id="linearGradient15"><stop
         style="stop-color:#a90009;stop-opacity:0;"
         offset="0.20528211"
         id="stop18" /><stop
         style="stop-color:#9b0009;stop-opacity:1;"
         offset="0.59901851"
         id="stop19" /></linearGradient><linearGradient
       id="linearGradient15-1"><stop
         style="stop-color:#690009;stop-opacity:0;"
         offset="0.07683074"
         id="stop17" /><stop
         style="stop-color:#7d0009;stop-opacity:0.40784314;"
         offset="0.28211284"
         id="stop20" /><stop
         style="stop-color:#9b0009;stop-opacity:1;"
         offset="0.57983196"
         id="stop16" /></linearGradient><radialGradient
       inkscape:collect="always"
       xlink:href="#linearGradient25"
       id="radialGradient28"
       gradientUnits="userSpaceOnUse"
       gradientTransform="matrix(0.53212656,-0.84666483,0.64062073,0.4026284,-51.11683,184.32141)"
       cx="112.14675"
       cy="153.38631"
       fx="112.14675"
       fy="153.38631"
       r="80.467834" /></defs><g
     inkscape:label="Calque 1"
     inkscape:groupmode="layer"
     id="layer1"
     transform="translate(-25.930587,-98.39375)"><g
       id="g31"><path
         d="m 144.27231,203.04667 c -0.11642,-0.11804 -0.21167,-0.37859 -0.21167,-0.57898 0,-0.27707 7.77948,-22.86206 8.38103,-24.33136 0.20796,-0.50795 1.23326,-0.67401 3.77371,-0.6112 2.13176,0.0527 2.43542,0.097 2.72618,0.39798 0.32345,0.33479 8.65642,24.03018 8.65642,24.61516 0,0.60865 -0.34355,0.70025 -2.6162,0.69758 -1.21539,-0.001 -2.31605,-0.0699 -2.4459,-0.15209 -0.12985,-0.0822 -0.66325,-1.3955 -1.18533,-2.9184 l -0.94924,-2.76891 -4.82912,-0.0449 -4.82913,-0.0449 -0.88759,2.66953 c -0.48818,1.46824 -0.9601,2.78383 -1.04872,2.92353 -0.21902,0.3453 -4.21123,0.47463 -4.53444,0.14689 z m 14.859,-9.75652 c 0,-0.41568 -3.62835,-10.91826 -3.70014,-10.71037 -0.0482,0.1397 -0.86512,2.63525 -1.81529,5.54567 l -1.72757,5.29166 h 3.6215 c 1.99182,0 3.6215,-0.0571 3.6215,-0.12696 z m 19.34633,9.77369 -0.381,-0.15315 v -12.43072 c 0,-11.36155 0.0241,-12.45071 0.28031,-12.66312 0.20232,-0.16775 0.83111,-0.2324 2.26009,-0.2324 1.42918,0 2.05763,0.0646 2.25969,0.2324 0.25563,0.21224 0.27991,1.30188 0.27991,12.5634 v 12.33099 l -0.37634,0.2636 c -0.28559,0.20004 -0.80622,0.26102 -2.159,0.25287 -0.98046,-0.006 -1.95411,-0.0796 -2.16366,-0.16387 z"
         style="fill:#aa0722;fill-opacity:1;fill-rule:evenodd"
         id="path1-1" /><path
         d="m 32.582138,203.27562 c -2.24084,-0.50426 -4.19265,-1.97299 -5.44476,-4.09716 -1.135,-1.9255 -1.17638,-2.22799 -1.2007,-8.77793 -0.0209,-5.62383 -0.007,-5.90242 0.35744,-7.0605 0.70808,-2.25139 2.30073,-4.13044 4.36214,-5.14658 1.10287,-0.54363 3.06156,-1.01376 4.22364,-1.01376 1.04101,0 3.06911,0.47902 4.15836,0.98218 1.1353,0.52443 3.11251,2.46077 3.76499,3.68716 0.51788,0.97339 0.97635,2.5775 0.97635,3.41607 v 0.5636 l -2.56384,-0.0488 -2.56384,-0.0488 -0.20556,-0.81052 c -0.41928,-1.65327 -1.90273,-2.83015 -3.56737,-2.83015 -1.70198,0 -2.79512,0.63081 -3.4062,1.96559 l -0.41001,0.89558 0.0507,5.75184 0.0507,5.75183 0.51089,0.72657 c 0.32053,0.45584 0.85684,0.90889 1.43934,1.21587 0.80333,0.42337 1.06003,0.47783 1.905,0.40414 1.36856,-0.11935 2.49942,-0.86306 3.0781,-2.02433 0.23797,-0.47754 0.43267,-1.00569 0.43267,-1.17367 0,-0.28127 0.20867,-0.30542 2.63955,-0.30542 h 2.63955 l -0.11991,0.71967 c -0.37992,2.28005 -1.1647,3.76112 -2.79049,5.26631 -1.23697,1.14522 -2.40851,1.73009 -4.12228,2.05799 -1.65404,0.31647 -2.55547,0.30214 -4.19454,-0.0667 z m 30.850079,0.0566 c -2.59474,-0.56264 -4.58722,-2.19507 -5.81647,-4.76541 l -0.71282,-1.4905 -0.0501,-6.42119 c -0.047,-6.03002 -0.0293,-6.4895 0.29048,-7.54237 0.89365,-2.94215 3.24674,-4.99495 6.49463,-5.66582 1.59129,-0.32869 2.24953,-0.33105 3.74879,-0.0134 3.26266,0.69119 5.69512,2.90349 6.60972,6.01148 0.2308,0.7843 0.27271,1.88413 0.26547,6.96653 -0.008,5.64761 -0.0313,6.10428 -0.36172,7.11086 -0.52761,1.60716 -0.89217,2.2253 -2.02952,3.44112 -1.23499,1.32022 -2.53331,2.01568 -4.44169,2.37928 -1.60131,0.3051 -2.5527,0.30258 -3.99681,-0.0105 z m 3.8418,-4.96402 c 0.8379,-0.42746 1.49948,-1.19387 1.74301,-2.01918 0.12284,-0.4163 0.16708,-2.5409 0.13151,-6.31487 l -0.0536,-5.6875 -0.48921,-0.70557 c -0.65875,-0.9501 -1.43264,-1.39606 -2.60538,-1.50137 -1.80248,-0.16187 -3.15935,0.51623 -3.78379,1.89093 -0.28095,0.61852 -0.31121,1.21527 -0.31457,6.20474 -0.002,3.68636 0.0603,5.71163 0.189,6.096 0.31089,0.92854 0.92137,1.60991 1.87688,2.0948 1.05222,0.53396 2.18479,0.5141 3.30616,-0.058 z m 19.55752,-7.93822 0.0434,-12.99633 4.826,-0.0503 c 2.95489,-0.0308 5.35123,0.0238 6.18067,0.14068 2.866183,0.40403 4.996973,2.01773 6.368243,4.82283 l 0.74376,1.52143 v 2.20134 c 0,2.09486 -0.0257,2.2604 -0.5312,3.42257 -0.66328,1.52493 -1.57113,2.77437 -2.61598,3.60027 l -0.80623,0.63729 0.38566,0.8266 c 0.21211,0.45463 0.97877,1.9315 1.70367,3.28193 1.45646,2.71325 2.79541,5.3439 2.79541,5.49217 0,0.0527 -1.25059,0.0958 -2.77909,0.0958 h -2.7791 l -0.652833,-1.31224 c -0.35905,-0.72178 -1.37053,-2.70528 -2.24773,-4.40777 l -1.59491,-3.09543 -1.95817,0.0474 -1.95817,0.0474 -0.0452,4.36033 -0.0452,4.36033 h -2.5382 -2.53819 z m 11.60877,-0.93061 c 1.08173,-0.71661 1.30395,-1.27225 1.30395,-3.26039 0,-1.42693 -0.0593,-1.80431 -0.37717,-2.39874 -0.77754,-1.45423 -1.75934,-1.7886 -5.0415,-1.71699 l -2.37066,0.0517 -0.052,2.87867 c -0.0286,1.58326 -0.003,3.35985 0.057,3.94797 l 0.10903,1.0693 2.83478,-0.0533 c 2.76644,-0.052 2.85172,-0.0645 3.53663,-0.51825 z m 19.676613,0.87472 v -13.05217 l 5.79967,0.0615 c 5.52593,0.0586 5.85095,0.0798 6.88629,0.44822 0.59764,0.21268 1.40521,0.60589 1.79459,0.87379 0.97944,0.67387 2.38888,2.25407 2.88665,3.23636 1.28063,2.5272 1.22875,5.92518 -0.1295,8.48156 -0.48185,0.90691 -1.88906,2.41202 -2.84437,3.04228 l -0.42333,0.27929 0.5578,1.07305 c 0.30679,0.59017 1.43668,2.76849 2.51088,4.84071 l 1.95307,3.76766 h -2.77602 -2.77603 l -0.41218,-0.71057 c -0.2267,-0.39082 -1.25039,-2.35297 -2.27485,-4.36033 l -1.86267,-3.64976 h -1.94733 -1.94734 v 4.36039 4.3604 l -2.49766,-6e-5 -2.49767,-7e-5 z m 11.4762,-0.82413 c 0.53114,-0.30417 0.83961,-0.65161 1.16006,-1.30659 0.38924,-0.79557 0.4301,-1.05478 0.37714,-2.39243 -0.0517,-1.30708 -0.12093,-1.59311 -0.53737,-2.22204 -0.77931,-1.17694 -1.54129,-1.41967 -4.72903,-1.50645 l -2.667,-0.0726 v 4.01384 4.01384 l 2.83633,-0.0566 c 2.64395,-0.0528 2.88542,-0.0847 3.55987,-0.47096 z"
         style="fill:#000000;fill-opacity:1;fill-rule:evenodd"
         id="path1" /><path
         d="m 72.0455,169.70159 -15.42222,-0.0432 -0.70882,-0.60672 c -1.14175,-0.97729 -1.43617,-1.87262 -0.9335,-2.83872 0.15228,-0.29267 0.32845,-0.64642 0.39149,-0.78612 0.063,-0.1397 0.38558,-0.38907 0.71677,-0.55416 0.55835,-0.27833 1.53672,-0.30297 13.45033,-0.33867 l 12.84817,-0.0385 1.14498,0.3761 c 0.62974,0.20686 1.307487,0.46307 1.506097,0.56937 0.56523,0.3025 1.83845,1.53092 2.08907,2.01557 0.26513,0.51271 0.59719,2.19362 0.44444,2.24982 -0.0575,0.0212 -7.044587,0.019 -15.526807,-0.005 z m 21.374907,-1.01634 c -0.86957,-2.70474 -2.35198,-4.84606 -4.54015,-6.55818 -1.41577,-1.10777 -2.37584,-1.6266 -4.29121,-2.31898 -2.509987,-0.90734 -3.454337,-0.98528 -11.937997,-0.98528 -8.95759,0 -9.85407,-0.0883 -12.14754,-1.19637 -2.32303,-1.12235 -4.48102,-3.45702 -5.38971,-5.83096 -0.30618,-0.79991 -0.32681,-1.4992 -0.37357,-12.66283 -0.0553,-13.2101 -0.10692,-12.60485 1.13368,-13.30211 1.19674,-0.6726 2.84536,-0.34451 3.43134,0.68288 0.17515,0.30709 0.24048,2.78529 0.30714,11.65072 l 0.0847,11.26067 0.42333,0.84667 c 0.6806,1.3612 1.94819,2.49391 3.2802,2.93118 1.06694,0.35025 1.42987,0.37082 6.54469,0.37082 3.46606,0 5.41511,-0.0604 5.41511,-0.16789 0,-0.21879 -1.54277,-1.08445 -3.51853,-1.97427 -2.70419,-1.21788 -5.40758,-3.26953 -5.98603,-4.5429 -0.65627,-1.44467 -0.21645,-3.58836 0.86462,-4.21415 0.68327,-0.39552 1.96109,-0.41176 2.6912,-0.0342 0.29957,0.15492 0.80482,0.68834 1.12278,1.18539 0.92475,1.44561 2.04904,2.2952 4.62382,3.49406 3.06152,1.4255 4.07849,2.02906 5.0415,2.99206 0.81978,0.81978 1.9454,1.85387 1.94835,2.51621 9.2e-4,0.20539 0.81152,0.76952 0.89508,0.82118 0.085,0.0525 -0.0371,0.32237 1.06535,0.5997 2.162257,0.54391 5.201447,1.90205 6.736087,3.01021 0.47104,0.34014 1.45097,1.19116 2.17763,1.89117 1.05562,1.01691 1.35252,1.22256 1.47704,1.02309 0.321295,-0.51471 -0.3404,-3.92531 -1.04322,-5.37715 -0.74989,-1.54906 -1.32388,-1.9662 -6.03785,-4.38794 -1.36977,-0.70371 -3.15313,-1.73267 -3.963007,-2.28658 -2.50652,-1.71433 -4.88689,-4.56872 -5.90311,-7.07865 l -0.44564,-1.10067 -1.53841,-0.10942 c -1.80825,-0.12861 -2.96037,-0.471 -4.35633,-1.29464 -2.18229,-1.28757 -3.84026,-3.0728 -4.86276,-5.236 -0.85128,-1.80097 -0.96679,-3.00447 -0.97333,-10.14123 -0.006,-6.41685 -0.004,-6.455 0.37509,-7.01176 0.62732,-0.92172 1.15727,-1.21732 2.16835,-1.20949 0.96829,0.007 1.47554,0.27522 2.09686,1.10669 0.33499,0.44829 0.35283,0.73928 0.44047,7.1862 0.10149,7.46599 0.10039,7.45831 1.28943,9.01747 1.37703,1.80568 3.69714,2.25384 4.03813,0.78001 0.047,-0.20304 0.10424,-4.02676 0.12725,-8.49716 0.0384,-7.45749 0.067,-8.17401 0.3464,-8.68582 0.48389,-0.88629 1.21365,-1.25009 2.36013,-1.17654 1.09561,0.0703 1.62561,0.4392 2.1778,1.51595 0.30503,0.5948 0.32232,1.12232 0.32478,9.906 0.002,8.69892 0.0237,9.36226 0.34038,10.63241 0.93598,3.75384 3.327007,6.4447 7.531017,8.47539 3.1965,1.54403 4.92502,1.90344 6.145085,1.27776 1.40749,-0.7218 1.89875,-1.79481 1.89731,-4.14411 -0.001,-1.85484 -0.20003,-2.65559 -0.83657,-3.36801 -0.46623,-0.5218 -0.5231,-0.53753 -2.317895,-0.64118 -2.68289,-0.15494 -3.84813,-0.67609 -5.41955,-2.42389 -1.03518,-1.15137 -1.49994,-1.99713 -1.92001,-3.49396 -0.32511,-1.15845 -0.35675,-1.709 -0.36017,-6.2683 -0.002,-2.78905 0.0679,-5.1841 0.15839,-5.41866 0.17707,-0.45905 0.7492,-1.03144 1.32995,-1.33055 0.93221,-0.48011 2.37197,-0.0119 3.05913,0.99476 0.36997,0.54201 0.381,0.68025 0.381,4.77536 0,5.29643 0.16068,6.20678 1.27718,7.23593 0.63714,0.5873 0.85673,0.68879 1.4902,0.68879 0.50572,0 0.891965,-0.11721 1.209645,-0.36709 0.85741,-0.67444 0.93365,-1.12592 0.93365,-5.52909 0,-3.92284 0.0115,-4.06169 0.38437,-4.61977 1.03785,-1.55357 3.46019,-1.5421 4.338438,0.0205 0.34475,0.6134 0.35719,0.8452 0.35719,6.65817 0,6.22774 0.0544,6.77219 0.69663,6.97604 0.74398,0.23613 1.66157,-0.83615 2.85671,-3.33827 1.81853,-3.80726 1.77828,-7.99518 -0.10514,-10.93944 -1.36262,-2.13012 -3.05415,-3.45792 -5.886198,-4.62051 -2.87509,-1.18026 -4.779935,-2.88313 -5.953885,-5.32257 -0.80361,-1.66988 -0.91182,-2.3461 -0.87197,-5.44887 0.0402,-3.13322 0.13082,-3.38255 1.48443,-4.08593 0.88728,-0.46107 1.609685,-0.41069 2.466035,0.17196 0.89901,0.61169 1.08005,1.18348 1.08005,3.4111 0,2.71004 0.18904,3.46269 1.13354,4.5132 0.90182,1.00303 1.68382,1.48951 3.703478,2.3039 1.63981,0.66123 3.01014,1.52957 4.08202,2.58667 0.77903,0.7683 1.2066,0.86372 1.65415,0.36918 0.70892,-0.78336 0.75695,-1.31416 0.76471,-8.45228 0.008,-7.477464 0.002,-7.429234 1.0275,-8.411484 0.38641,-0.3702 0.70107,-0.49259 1.41965,-0.55218 1.06357,-0.0882 1.69016,0.24405 2.28968,1.21409 0.3349,0.541874 0.35061,0.803104 0.35061,5.830634 0,5.71042 0.10617,6.69466 0.79665,7.38514 0.40224,0.40224 0.54873,0.43487 1.95251,0.43487 1.76881,0 2.4575,0.25264 3.14473,1.15364 0.66012,0.86546 0.65199,2.25657 -0.0183,3.13538 -0.80887,1.06048 -1.27433,1.21431 -3.67425,1.21431 -2.38936,0 -2.94901,0.1946 -3.56573,1.23985 -0.5518,0.93523 -0.68453,1.96993 -0.744,5.79977 -0.0413,2.65758 -0.1352,3.99957 -0.34385,4.91242 -0.95913,4.19639 -2.19909,6.54747 -5.75283,10.90796 -2.18532,2.68143 -3.67051,4.82243 -4.24259,6.11601 -0.23612,0.5339 -0.65636,1.82745 -0.933878,2.87455 -0.44937,1.69552 -0.50522,2.1786 -0.51049,4.41529 -0.003,1.38132 0.0677,2.93058 0.1578,3.44281 0.42352,2.40922 1.106658,5.72595 1.639218,7.95867 0.32211,1.35043 0.62401,2.62678 0.67089,2.83633 l 0.0852,0.381 -4.109548,-0.001 -4.109565,-0.001 z m 14.333693,0.67856 c -0.0592,-0.16298 -0.4,-0.97688 -0.75732,-1.80866 -1.24705,-2.90299 -2.23967,-7.59915 -2.45418,-11.61101 -0.17313,-3.23781 0.63752,-6.85481 2.17675,-9.71239 0.99238,-1.84236 2.5872,-3.60417 5.06598,-5.59642 2.58976,-2.08146 2.89783,-2.69577 3.0225,-6.02719 0.0831,-2.21981 0.1298,-2.50849 0.48715,-3.0095 0.45283,-0.63488 1.49491,-1.22383 2.16545,-1.22383 0.72124,0 1.84284,0.75388 2.19577,1.47589 0.62603,1.2807 0.46363,5.23067 -0.30027,7.30341 -0.53738,1.4581 -1.72094,2.91716 -4.5699,5.63365 -4.12361,3.93186 -5.0865,5.90317 -5.11849,10.47905 -0.0149,2.13826 0.0266,2.5428 0.32151,3.13267 0.18627,0.37253 0.45148,0.67733 0.58936,0.67733 0.13788,0 0.43287,-0.3429 0.65553,-0.762 2.4812,-4.67028 4.13804,-6.58714 7.98377,-9.23672 3.06597,-2.11234 4.39799,-3.61219 5.22387,-5.88203 0.43576,-1.19768 0.4463,-1.32773 0.53136,-6.55592 0.0761,-4.67931 0.12358,-5.40135 0.38663,-5.88273 0.8034,-1.47022 2.85021,-1.74317 3.96773,-0.52911 0.74168,0.80576 0.9452,1.61377 0.81753,3.2458 -0.0644,0.82301 -0.0615,2.88156 0.006,4.57454 l 0.12337,3.07817 0.55067,0.55067 c 0.69175,0.69174 1.50856,0.73598 2.53055,0.13706 0.8923,-0.52293 1.6897,-1.95774 1.93777,-3.48676 0.10964,-0.67572 0.17815,-4.95918 0.17893,-11.18737 9e-4,-7.08026 0.0587,-10.26419 0.19366,-10.668 0.54379,-1.62707 2.43026,-2.29563 3.85095,-1.36476 0.22419,0.14689 0.5732,0.62447 0.77558,1.06128 0.3597,0.77637 0.3675,0.9475 0.34754,7.62704 -0.0249,8.32785 -0.0638,8.17615 2.04817,7.98465 1.15632,-0.10485 1.70586,0.10244 2.50781,0.94599 0.38927,0.40947 0.51003,0.71558 0.57065,1.4466 0.11324,1.36552 -0.0754,2.06347 -0.76367,2.82528 -0.74607,0.82581 -1.48713,1.15835 -2.91169,1.30656 -1.22667,0.12763 -1.07497,-0.0802 -1.71269,2.34613 -0.82207,3.12769 -3.57899,6.39289 -6.76439,8.01148 -0.78534,0.39906 -3.0937,1.28859 -5.99451,2.31001 -2.28934,0.80611 -5.20377,2.27916 -6.59507,3.33335 -3.62144,2.744 -7.08272,9.21341 -7.66018,14.31748 l -0.11729,1.03664 h -2.69277 c -2.41064,0 -2.70405,-0.031 -2.80043,-0.29633 z m 11.55142,-0.59267 c 0.26208,-1.94826 1.41001,-5.00625 2.52673,-6.731 2.79697,-4.31984 7.39028,-7.15196 13.12415,-8.09202 l 1.7687,-0.28998 0.27741,-0.93133 c 0.40964,-1.37526 0.73247,-1.90225 1.69589,-2.76845 0.85838,-0.77176 1.2138,-0.96734 4.78125,-2.63097 3.47644,-1.6212 5.04765,-3.3195 5.63506,-6.09087 0.19101,-0.90119 0.23904,-3.33536 0.2414,-12.23367 l 0.003,-11.10862 0.381,-0.55981 c 0.59746,-0.87786 1.14646,-1.19912 2.08425,-1.21965 1.14213,-0.025 1.88313,0.38832 2.28567,1.27494 0.30576,0.67347 0.32182,1.278 0.32536,12.24673 0.004,13.01664 -0.0182,13.3152 -1.17742,15.72437 -1.34378,2.79265 -3.77925,4.95455 -7.1587,6.35459 -3.22339,1.33538 -3.70159,1.56838 -3.54342,1.72656 0.0893,0.0893 2.78533,0.13046 6.39975,0.0978 5.95559,-0.0538 6.28762,-0.0736 7.15272,-0.42535 1.28068,-0.52075 1.93106,-1.00782 2.53609,-1.89924 1.09357,-1.61126 1.06516,-1.29115 1.09844,-12.37368 0.0281,-9.34581 0.0523,-10.11573 0.33481,-10.63316 0.35218,-0.64506 1.09147,-1.14259 1.93212,-1.3003 0.85711,-0.1608 2.05212,0.47192 2.54997,1.35012 l 0.38398,0.67734 -0.0543,10.668 c -0.0605,11.89102 -0.0311,11.56887 -1.25909,13.77887 -1.19455,2.14981 -3.38595,4.0054 -5.61844,4.75747 -1.6856,0.56784 -3.73078,0.67697 -12.74423,0.68006 -9.65474,0.003 -9.94383,0.0299 -12.90816,1.18892 -2.99891,1.17252 -4.84643,2.82824 -6.14012,5.50268 -0.50029,1.03425 -0.80373,1.94572 -0.94424,2.83633 l -0.20706,1.31233 h -2.94105 -2.94104 z m 11.64792,0.0539 c 0.25406,-2.14511 1.74885,-3.54328 4.46042,-4.17214 0.98007,-0.22729 2.87913,-0.25344 14.43718,-0.19877 12.22918,0.0579 13.35392,0.0868 13.86649,0.35669 0.77921,0.41032 1.21878,1.20274 1.21955,2.19851 7.8e-4,1.01108 -0.34333,1.62209 -1.24155,2.20451 l -0.68827,0.44628 H 146.9309 130.85454 Z m -10.29601,-42.77058 c -1.43091,-0.77553 -1.99905,-2.22364 -1.35843,-3.46246 0.38682,-0.74803 1.01151,-1.14316 2.54849,-1.61196 1.48936,-0.45429 2.19767,-0.97461 2.73737,-2.01088 0.61899,-1.1885 0.71669,-2.38711 0.72662,-8.91436 0.009,-5.88811 0.0333,-6.40209 0.33477,-7.06617 0.8855,-1.95066 3.52028,-1.87824 4.54324,0.12487 l 0.38844,0.76064 -0.0586,7.45065 c -0.065,8.26393 -0.0491,8.13252 -1.2628,10.4549 -0.76151,1.45717 -2.47665,3.10294 -4.03143,3.86836 -0.96592,0.47551 -1.35976,0.56961 -2.59922,0.62098 -1.11565,0.0463 -1.58075,-0.004 -1.96843,-0.21457 z"
         style="fill:url(#radialGradient28);fill-opacity:1;fill-rule:evenodd"
         id="path1-3" /><circle
         id="path31"
         style="fill:#a70622;fill-opacity:1;stroke:#000000;stroke-width:0.264583"
         cx="92.221336"
         cy="161.03264"
         r="0.012598761" /></g></g></svg>
